<svg id="visual" viewBox="0 0 900 600" width="900" height="600" xmlns="http://www.w3.org/2000/svg" xmlns:xlink="http://www.w3.org/1999/xlink" version="1.1"><rect x="0" y="0" width="900" height="600" fill="#001220"></rect><defs><linearGradient id="grad1_0" x1="33.3%" y1="0%" x2="100%" y2="100%"><stop offset="20%" stop-color="#001220" stop-opacity="1"></stop><stop offset="80%" stop-color="#001220" stop-opacity="1"></stop></linearGradient></defs><defs><linearGradient id="grad2_0" x1="0%" y1="0%" x2="66.7%" y2="100%"><stop offset="20%" stop-color="#001220" stop-opacity="1"></stop><stop offset="80%" stop-color="#001220" stop-opacity="1"></stop></linearGradient></defs><g transform="translate(900, 0)"><path d="M0 486.7C-60.7 458.7 -121.4 430.7 -163 393.6C-204.7 356.4 -227.2 310.1 -278.6 278.6C-330 247.1 -410.2 230.2 -449.7 186.3C-489.2 142.3 -488 71.1 -486.7 0L0 0Z" fill="#ff9900"></path></g><g transform="translate(0, 600)"><path d="M0 -486.7C67.3 -483.5 134.5 -480.2 186.3 -449.7C238 -419.2 274.3 -361.6 313.2 -313.2C352.2 -264.9 393.8 -225.9 423.1 -175.3C452.5 -124.6 469.6 -62.3 486.7 0L0 0Z" fill="#ff9900"></path></g></svg>