<svg id="visual" viewBox="0 0 900 600" width="900" height="600" xmlns="http://www.w3.org/2000/svg" xmlns:xlink="http://www.w3.org/1999/xlink" version="1.1"><path d="M0 151L82 151L82 61L164 61L164 103L245 103L245 133L327 133L327 109L409 109L409 73L491 73L491 109L573 109L573 151L655 151L655 103L736 103L736 61L818 61L818 61L900 61L900 103L900 0L900 0L818 0L818 0L736 0L736 0L655 0L655 0L573 0L573 0L491 0L491 0L409 0L409 0L327 0L327 0L245 0L245 0L164 0L164 0L82 0L82 0L0 0Z" fill="#fa7268"></path><path d="M0 271L82 271L82 253L164 253L164 349L245 349L245 301L327 301L327 253L409 253L409 313L491 313L491 289L573 289L573 235L655 235L655 235L736 235L736 259L818 259L818 313L900 313L900 325L900 101L900 59L818 59L818 59L736 59L736 101L655 101L655 149L573 149L573 107L491 107L491 71L409 71L409 107L327 107L327 131L245 131L245 101L164 101L164 59L82 59L82 149L0 149Z" fill="#ea5e66"></path><path d="M0 325L82 325L82 349L164 349L164 439L245 439L245 409L327 409L327 355L409 355L409 439L491 439L491 373L573 373L573 367L655 367L655 355L736 355L736 361L818 361L818 433L900 433L900 421L900 323L900 311L818 311L818 257L736 257L736 233L655 233L655 233L573 233L573 287L491 287L491 311L409 311L409 251L327 251L327 299L245 299L245 347L164 347L164 251L82 251L82 269L0 269Z" fill="#d84a64"></path><path d="M0 361L82 361L82 385L164 385L164 487L245 487L245 451L327 451L327 451L409 451L409 487L491 487L491 457L573 457L573 403L655 403L655 439L736 439L736 433L818 433L818 493L900 493L900 523L900 419L900 431L818 431L818 359L736 359L736 353L655 353L655 365L573 365L573 371L491 371L491 437L409 437L409 353L327 353L327 407L245 407L245 437L164 437L164 347L82 347L82 323L0 323Z" fill="#c53762"></path><path d="M0 601L82 601L82 601L164 601L164 601L245 601L245 601L327 601L327 601L409 601L409 601L491 601L491 601L573 601L573 601L655 601L655 601L736 601L736 601L818 601L818 601L900 601L900 601L900 521L900 491L818 491L818 431L736 431L736 437L655 437L655 401L573 401L573 455L491 455L491 485L409 485L409 449L327 449L327 449L245 449L245 485L164 485L164 383L82 383L82 359L0 359Z" fill="#b0235f"></path></svg>